<?xml version="1.0" encoding="UTF-8" standalone="no"?>
<!DOCTYPE svg PUBLIC "-//W3C//DTD SVG 1.1//EN"
 "http://www.w3.org/Graphics/SVG/1.1/DTD/svg11.dtd">
<!-- Generated by graphviz version 2.44.1 (20200629.0846)
 -->
<!-- Title: sorting::merge_insertion::mergeSort Pages: 1 -->
<svg width="405pt" height="96pt"
 viewBox="0.00 0.00 405.00 95.50" xmlns="http://www.w3.org/2000/svg" xmlns:xlink="http://www.w3.org/1999/xlink">
<g id="graph0" class="graph" transform="scale(1 1) rotate(0) translate(4 91.5)">
<title>sorting::merge_insertion::mergeSort</title>
<polygon fill="white" stroke="transparent" points="-4,4 -4,-91.5 401,-91.5 401,4 -4,4"/>
<!-- Node1 -->
<g id="node1" class="node">
<title>Node1</title>
<g id="a_node1"><a xlink:title="Final combined algorithm. Algorithm utilizes ::sorting::merge_insertion::InsertionSort if window leng...">
<polygon fill="#bfbfbf" stroke="black" points="0,-17 0,-47 121,-47 121,-17 0,-17"/>
<text text-anchor="start" x="8" y="-35" font-family="Helvetica,sans-Serif" font-size="10.00">sorting::merge_insertion</text>
<text text-anchor="middle" x="60.5" y="-24" font-family="Helvetica,sans-Serif" font-size="10.00">::mergeSort</text>
</a>
</g>
</g>
<!-- Node1&#45;&gt;Node1 -->
<g id="edge6" class="edge">
<title>Node1&#45;&gt;Node1</title>
<path fill="none" stroke="midnightblue" d="M33.31,-47.16C26.76,-56.56 35.82,-65.5 60.5,-65.5 75.54,-65.5 84.78,-62.18 88.22,-57.46"/>
<polygon fill="midnightblue" stroke="midnightblue" points="91.7,-56.96 87.69,-47.16 84.71,-57.33 91.7,-56.96"/>
</g>
<!-- Node2 -->
<g id="node2" class="node">
<title>Node2</title>
<g id="a_node2"><a xlink:href="../../de/d7b/merge__insertion__sort_8cpp.html#a0cba4fbf287ab8cb978ed7f8fef886b1" target="_top" xlink:title="Insertion merge algorithm.">
<polygon fill="white" stroke="black" points="157,-39 157,-69 278,-69 278,-39 157,-39"/>
<text text-anchor="start" x="165" y="-57" font-family="Helvetica,sans-Serif" font-size="10.00">sorting::merge_insertion</text>
<text text-anchor="middle" x="217.5" y="-46" font-family="Helvetica,sans-Serif" font-size="10.00">::InsertionSort</text>
</a>
</g>
</g>
<!-- Node1&#45;&gt;Node2 -->
<g id="edge1" class="edge">
<title>Node1&#45;&gt;Node2</title>
<path fill="none" stroke="midnightblue" d="M121.43,-40.51C129.82,-41.7 138.49,-42.93 147.04,-44.14"/>
<polygon fill="midnightblue" stroke="midnightblue" points="146.6,-47.61 156.99,-45.55 147.58,-40.68 146.6,-47.61"/>
</g>
<!-- Node4 -->
<g id="node4" class="node">
<title>Node4</title>
<g id="a_node4"><a xlink:href="../../d5/d91/namespacesorting.html#aa26de383227859210f14dcf12201a079" target="_top" xlink:title="merges 2 sorted adjacent segments into a larger sorted segment">
<polygon fill="white" stroke="black" points="178,-0.5 178,-19.5 257,-19.5 257,-0.5 178,-0.5"/>
<text text-anchor="middle" x="217.5" y="-7.5" font-family="Helvetica,sans-Serif" font-size="10.00">sorting::merge</text>
</a>
</g>
</g>
<!-- Node1&#45;&gt;Node4 -->
<g id="edge4" class="edge">
<title>Node1&#45;&gt;Node4</title>
<path fill="none" stroke="midnightblue" d="M121.43,-23.49C136.65,-21.33 152.82,-19.04 167.43,-16.97"/>
<polygon fill="midnightblue" stroke="midnightblue" points="168.34,-20.37 177.75,-15.5 167.36,-13.44 168.34,-20.37"/>
</g>
<!-- Node2&#45;&gt;Node2 -->
<g id="edge3" class="edge">
<title>Node2&#45;&gt;Node2</title>
<path fill="none" stroke="midnightblue" d="M193.45,-69.16C187.65,-78.56 195.67,-87.5 217.5,-87.5 230.8,-87.5 238.98,-84.18 242.02,-79.46"/>
<polygon fill="midnightblue" stroke="midnightblue" points="245.5,-78.99 241.55,-69.16 238.51,-79.31 245.5,-78.99"/>
</g>
<!-- Node3 -->
<g id="node3" class="node">
<title>Node3</title>
<g id="a_node3"><a target="_blank" xlink:href="http://en.cppreference.com/w/cpp/container/array/data.html#" target="_top" xlink:title=" ">
<polygon fill="white" stroke="black" points="314,-44.5 314,-63.5 397,-63.5 397,-44.5 314,-44.5"/>
<text text-anchor="middle" x="355.5" y="-51.5" font-family="Helvetica,sans-Serif" font-size="10.00">std::array::data</text>
</a>
</g>
</g>
<!-- Node2&#45;&gt;Node3 -->
<g id="edge2" class="edge">
<title>Node2&#45;&gt;Node3</title>
<path fill="none" stroke="midnightblue" d="M278.15,-54C286.58,-54 295.19,-54 303.44,-54"/>
<polygon fill="midnightblue" stroke="midnightblue" points="303.66,-57.5 313.66,-54 303.66,-50.5 303.66,-57.5"/>
</g>
<!-- Node5 -->
<g id="node5" class="node">
<title>Node5</title>
<g id="a_node5"><a target="_blank" xlink:href="http://en.cppreference.com/w/cpp/utility/move.html#" target="_top" xlink:title=" ">
<polygon fill="white" stroke="black" points="325.5,-0.5 325.5,-19.5 385.5,-19.5 385.5,-0.5 325.5,-0.5"/>
<text text-anchor="middle" x="355.5" y="-7.5" font-family="Helvetica,sans-Serif" font-size="10.00">std::move</text>
</a>
</g>
</g>
<!-- Node4&#45;&gt;Node5 -->
<g id="edge5" class="edge">
<title>Node4&#45;&gt;Node5</title>
<path fill="none" stroke="midnightblue" d="M257.11,-10C275.31,-10 296.99,-10 315.27,-10"/>
<polygon fill="midnightblue" stroke="midnightblue" points="315.31,-13.5 325.31,-10 315.31,-6.5 315.31,-13.5"/>
</g>
</g>
</svg>
